<svg width="144" height="60" viewBox="0 0 144 60" fill="none" xmlns="http://www.w3.org/2000/svg">
<path fill-rule="evenodd" clip-rule="evenodd" d="M35.1857 16.6914C35.1857 16.2561 35.5397 15.9022 35.9749 15.9022C36.4103 15.9022 36.7646 16.2561 36.7646 16.6914C36.7646 16.8645 36.7095 17.0289 36.6054 17.1664L36.6027 17.1699C36.5985 17.1753 36.5908 17.1853 36.5876 17.1889C36.586 17.1908 36.5839 17.192 36.5818 17.1933C36.5796 17.1946 36.5773 17.196 36.5754 17.1983C36.3143 17.4872 36.1704 17.8613 36.1704 18.2513C36.1704 18.5138 36.2364 18.7738 36.3619 19.0033C36.3657 19.0107 36.3708 19.0168 36.376 19.023L36.376 19.023C36.3797 19.0274 36.3834 19.0318 36.3866 19.0367L36.3874 19.0386L38.5196 22.7314C38.2365 22.6318 37.9459 22.5489 37.6489 22.4822C37.6473 22.4785 37.6459 22.4747 37.6445 22.4709C37.6423 22.4647 37.64 22.4584 37.6369 22.4528L36.2614 20.0835H36.2567C36.2029 19.9776 36.0958 19.9029 35.9689 19.9029C35.8318 19.9029 35.7373 19.9856 35.6672 20.1084C35.6179 20.1951 34.8088 21.6148 34.3367 22.443L34.3397 22.4473C34.3387 22.4493 34.3378 22.4514 34.3369 22.4535C34.3358 22.4561 34.3348 22.4587 34.3339 22.4614C34.3326 22.4649 34.3313 22.4685 34.3298 22.4719C34.0239 22.5384 33.7254 22.6232 33.4342 22.7248L35.5605 19.0421C35.5699 19.0253 35.5769 19.0078 35.584 18.9903L35.5864 18.9844C35.7051 18.7594 35.7688 18.5068 35.7688 18.2513C35.7688 17.8667 35.6276 17.4983 35.3736 17.2108C35.3708 17.2065 35.3682 17.2021 35.3656 17.1977C35.3613 17.1904 35.357 17.183 35.3514 17.1759C35.2429 17.0364 35.1857 16.8686 35.1857 16.6914ZM24.5183 24.1303C24.8991 24.0484 25.2949 24.1106 25.6326 24.3058C25.8598 24.4371 26.052 24.6244 26.1883 24.8477C26.1966 24.8613 26.2029 24.8758 26.2092 24.8901L26.2142 24.9015L28.3817 28.6562C28.4436 28.3057 28.5287 27.9632 28.6359 27.6311L27.5622 25.7945L27.3039 25.3528C27.2319 25.23 27.2074 25.1057 27.2766 24.9857C27.3405 24.8749 27.4598 24.819 27.5794 24.8256L27.5818 24.8212L30.2732 24.8147C30.4802 24.5872 30.7018 24.3744 30.9343 24.1732H26.6226C26.5969 24.1732 26.5719 24.1701 26.5476 24.1657C26.2974 24.1543 26.0511 24.084 25.8334 23.9584C25.5006 23.7664 25.2525 23.4604 25.1304 23.0968C25.1281 23.0923 25.1257 23.088 25.1232 23.0837C25.1186 23.0756 25.1141 23.0676 25.1106 23.0587C25.0444 22.8952 24.9281 22.7621 24.7744 22.6734C24.3977 22.4557 23.9138 22.5849 23.6961 22.962C23.5905 23.1448 23.5626 23.3578 23.6173 23.5611C23.6717 23.7651 23.8022 23.9351 23.985 24.0407C24.1348 24.1269 24.3047 24.1618 24.4755 24.1406C24.4779 24.1402 24.4802 24.1401 24.4826 24.1401C24.4846 24.14 24.4866 24.1399 24.4886 24.1397C24.4921 24.1386 24.4954 24.1374 24.4986 24.1362C24.505 24.1339 24.5112 24.1317 24.5183 24.1303ZM25.1184 36.9411C25.0513 37.0999 24.9366 37.2294 24.7867 37.3161C24.4093 37.5328 23.9257 37.4034 23.7084 37.0273C23.4907 36.6502 23.6203 36.1661 23.997 35.949C24.1511 35.8603 24.3246 35.8264 24.4995 35.8502C24.5066 35.8512 24.5135 35.8512 24.5204 35.8512C24.5255 35.8513 24.5305 35.8513 24.5357 35.8517C24.6414 35.8736 24.7483 35.8849 24.8546 35.8849C25.1284 35.8849 25.3989 35.8131 25.6401 35.6741C25.8671 35.5425 26.0593 35.3552 26.1951 35.1326L26.1962 35.1304L26.1973 35.1281C26.2004 35.1237 26.2038 35.1197 26.2071 35.1158L26.2071 35.1158C26.2118 35.1102 26.2165 35.1046 26.2204 35.0979L28.383 31.3519C28.4422 31.686 28.5221 32.0128 28.623 32.3301L27.6773 33.9473L27.3039 34.5859C27.2319 34.7092 27.2074 34.8332 27.2766 34.9528C27.3405 35.0636 27.4597 35.1197 27.5794 35.1131L27.5818 35.1174L30.2192 35.124C30.438 35.3694 30.6729 35.5999 30.9214 35.8159H26.6441L26.6381 35.8151C26.6212 35.8131 26.6045 35.8111 26.5869 35.8117C26.3259 35.8179 26.0677 35.8905 25.8403 36.0217C25.503 36.2167 25.251 36.5278 25.131 36.8985C25.1293 36.9041 25.1282 36.9097 25.1271 36.9154C25.1262 36.9201 25.1253 36.9247 25.1241 36.9294C25.1233 36.9316 25.1222 36.9336 25.1211 36.9355C25.1201 36.9373 25.1192 36.9392 25.1184 36.9411ZM48.2381 37.0586C48.4554 36.6814 48.3259 36.1976 47.949 35.9799C47.7953 35.8914 47.6203 35.8586 47.4465 35.8817C47.4393 35.8825 47.4321 35.8825 47.425 35.8826C47.4205 35.8826 47.416 35.8826 47.4114 35.8828C47.3051 35.9049 47.1983 35.9162 47.0916 35.9162C46.8176 35.9162 46.5471 35.8446 46.3063 35.7054C46.0798 35.5749 45.8878 35.3876 45.7509 35.1641L45.75 35.1619L45.75 35.1619C45.7497 35.1609 45.7493 35.1599 45.7487 35.1591C45.7455 35.1544 45.742 35.1503 45.7385 35.1463L45.7385 35.1463C45.734 35.141 45.7296 35.1359 45.726 35.1296L43.5491 31.3599C43.4919 31.6813 43.4164 31.9969 43.3202 32.3036L43.3204 32.304L44.6846 34.6806L44.6822 34.6849C44.7473 34.7846 44.7579 34.9146 44.6948 35.0243C44.6259 35.1433 44.5074 35.1838 44.3661 35.1829L43.4975 35.1781C42.9301 35.1749 42.2014 35.1708 41.6781 35.1681L41.6777 35.1671C41.4589 35.4086 41.2236 35.6349 40.9764 35.8474H45.3036C45.3085 35.8469 45.3133 35.8462 45.3181 35.8456L45.3183 35.8455L45.3297 35.8441L45.3395 35.8432L45.348 35.8429H45.3593C45.6204 35.8494 45.8784 35.9222 46.1059 36.0534C46.443 36.2479 46.6952 36.5591 46.8154 36.9298C46.8168 36.9349 46.8177 36.9399 46.8186 36.945C46.8191 36.9484 46.8197 36.9518 46.8204 36.9551L46.8287 36.975C46.8951 37.1314 47.01 37.2609 47.1594 37.3472C47.5373 37.5656 48.0201 37.4355 48.2381 37.0586ZM35.9541 44.0979C36.3896 44.0979 36.7434 43.7438 36.7434 43.3086C36.7434 43.1357 36.6887 42.9716 36.5848 42.8338C36.584 42.8328 36.5833 42.8317 36.5827 42.8306L36.5817 42.8285C36.5811 42.8272 36.5804 42.8258 36.5796 42.8244C36.5762 42.8212 36.5727 42.8183 36.5691 42.8154C36.5641 42.8113 36.5591 42.8072 36.5546 42.8023C36.2936 42.5134 36.1498 42.1393 36.1498 41.7493C36.1498 41.487 36.216 41.2268 36.3409 40.9978C36.349 40.9824 36.359 40.9689 36.369 40.9554L36.3737 40.9491L38.4936 37.2774C38.2108 37.3757 37.9213 37.4582 37.6251 37.5234L37.6244 37.5251L37.624 37.5265L37.623 37.5283L36.2477 39.8976H36.2424C36.189 40.0033 36.0819 40.0779 35.955 40.0779C35.8176 40.0779 35.7234 39.9953 35.6535 39.8726C35.6222 39.8173 35.2839 39.2239 34.9203 38.5862L34.3228 37.5381L34.3258 37.5337L34.3249 37.5316L34.3245 37.5303L34.3245 37.5303C34.3242 37.5291 34.3238 37.5279 34.3232 37.5268C34.0106 37.4586 33.7054 37.3716 33.4088 37.2666L35.5397 40.9581C35.5538 40.9823 35.5644 41.0076 35.5734 41.0325C35.6865 41.2534 35.7482 41.4998 35.7482 41.7493C35.7482 42.1335 35.6076 42.5012 35.3533 42.7884L35.3461 42.8006C35.3413 42.8087 35.3366 42.8168 35.3308 42.8244C35.2223 42.9639 35.1647 43.1314 35.1647 43.3086C35.1647 43.7438 35.5191 44.0979 35.9541 44.0979ZM46.0699 23.9181C45.8544 24.0422 45.6116 24.1119 45.3649 24.1247C45.3375 24.1297 45.3096 24.1331 45.2805 24.1331H40.9532C41.2009 24.3437 41.436 24.5687 41.6548 24.8087C41.6827 24.8003 41.7112 24.7952 41.7403 24.7937L41.7422 24.7888L44.4298 24.774C44.5716 24.7734 44.6901 24.8134 44.7589 24.9324C44.8224 25.0425 44.8114 25.1724 44.7467 25.272L44.7488 25.2761L43.3843 27.6527C43.3688 27.6776 43.3493 27.7001 43.3277 27.7206C43.4147 28.0018 43.4843 28.2904 43.5392 28.5844L45.6889 24.861L45.6953 24.8465L45.6953 24.8465C45.7011 24.8332 45.7069 24.82 45.7146 24.8074C45.8505 24.5846 46.0423 24.3977 46.2703 24.2659C46.6071 24.0712 47.0034 24.0081 47.3846 24.0896C47.3867 24.09 47.3887 24.0906 47.3907 24.0913C47.3926 24.0919 47.3944 24.0926 47.3963 24.0933C47.3995 24.0945 47.4028 24.0957 47.4062 24.0966C47.6023 24.1204 47.7692 24.0859 47.9179 24C48.1007 23.8948 48.2316 23.7244 48.286 23.5208C48.3407 23.3171 48.3124 23.1047 48.2068 22.9219C47.9897 22.5446 47.505 22.4154 47.1287 22.6327C46.9751 22.7214 46.8585 22.8553 46.7919 23.019C46.789 23.0265 46.785 23.0334 46.781 23.0403C46.7796 23.0426 46.7782 23.045 46.7769 23.0474C46.7759 23.0492 46.7749 23.0511 46.7739 23.0529C46.6524 23.418 46.4033 23.7253 46.0699 23.9181ZM39.438 35.8479C39.3923 35.8652 39.3491 35.8892 39.3109 35.9211C38.3224 36.4813 37.1818 36.8031 35.9672 36.8031C32.2159 36.8031 29.1639 33.7515 29.1639 30C29.1639 27.5068 30.5134 25.3237 32.5189 24.1393C32.5431 24.1281 32.5656 24.1153 32.5875 24.0999C33.5841 23.5267 34.7376 23.1971 35.9672 23.1971C39.7183 23.1971 42.7699 26.2491 42.7699 30C42.7699 32.4842 41.4311 34.6601 39.438 35.8479ZM48.3997 35.1984C48.0705 35.0093 47.6989 34.935 47.322 34.9883C47.3206 34.9884 47.3194 34.9888 47.3182 34.9892C47.3168 34.9895 47.3155 34.9899 47.3139 34.9901C47.2869 34.9911 47.2596 34.9933 47.232 34.9991C47.0702 35.0342 46.9014 35.0078 46.7574 34.9239C46.6594 34.8677 46.5797 34.7901 46.5212 34.6939C46.5176 34.688 46.5133 34.6826 46.5089 34.6773C46.5056 34.6731 46.5022 34.669 46.4993 34.6646L43.9673 30.2799C43.8752 30.0763 43.8829 29.8436 43.9954 29.649C44.0205 29.6057 44.0349 29.5601 44.0445 29.5134L46.4781 25.2981C46.4815 25.2923 46.4839 25.2861 46.4864 25.2799C46.4879 25.2763 46.4893 25.2726 46.491 25.269C46.5489 25.1777 46.626 25.1021 46.7213 25.047C46.8654 24.9638 47.0336 24.9375 47.196 24.9718C47.1974 24.9723 47.1986 24.9723 47.2 24.9724C47.2009 24.9724 47.2018 24.9724 47.2028 24.9726C47.2074 24.9739 47.212 24.9754 47.2167 24.9769C47.2282 24.9805 47.2398 24.9842 47.2523 24.9863C47.2749 24.99 47.2974 24.9932 47.3167 24.9954C47.3871 25.0041 47.4574 25.0086 47.5275 25.0086C47.8221 25.0086 48.1095 24.9313 48.3692 24.7815C48.7603 24.5554 49.0402 24.1907 49.1572 23.7544C49.2739 23.3177 49.2141 22.8619 48.9879 22.4708C48.522 21.6634 47.4849 21.3861 46.6774 21.8518C46.3481 22.0423 46.0989 22.3284 45.9562 22.6796C45.9557 22.6809 45.9553 22.6823 45.9549 22.6836C45.9545 22.6853 45.954 22.687 45.9533 22.6886C45.9411 22.7124 45.9296 22.7368 45.9212 22.7629C45.87 22.9209 45.7628 23.0537 45.6189 23.1366C45.5203 23.1936 45.4134 23.2236 45.3011 23.2264C45.2935 23.2265 45.2862 23.2277 45.2789 23.229C45.2742 23.2298 45.2696 23.2306 45.2648 23.2311H40.0785C39.9186 23.187 39.7779 23.0871 39.6838 22.9444L37.1683 18.5874C37.1652 18.5819 37.1614 18.5769 37.1575 18.572C37.1549 18.5685 37.1522 18.5651 37.1498 18.5614C37.0993 18.4654 37.0725 18.3613 37.0725 18.2513C37.0725 18.0849 37.1334 17.9259 37.2446 17.8029C37.2454 17.802 37.2459 17.801 37.2464 17.7999C37.2469 17.7989 37.2473 17.7978 37.2482 17.7969C37.2518 17.7935 37.2554 17.7902 37.2591 17.7869C37.2693 17.7776 37.2796 17.7682 37.2887 17.7572L37.3256 17.7098C37.5487 17.4144 37.6667 17.0623 37.6667 16.6914C37.6667 15.7588 36.9077 15 35.9749 15C35.0424 15 34.2834 15.7588 34.2834 16.6914C34.2834 17.0717 34.4066 17.4306 34.6399 17.7302C34.6455 17.7374 34.6518 17.7436 34.6582 17.7498C34.6623 17.7538 34.6664 17.7578 34.6702 17.7621C34.6743 17.7677 34.6773 17.7737 34.6802 17.7798C34.6842 17.7878 34.6882 17.7959 34.6946 17.8029C34.8056 17.9259 34.8669 18.0849 34.8669 18.2513C34.8669 18.3649 34.8394 18.4723 34.7859 18.5711C34.7823 18.5775 34.7798 18.5841 34.7773 18.5906C34.7757 18.5949 34.774 18.5992 34.7721 18.6034L32.3319 22.8304C32.2984 22.8608 32.2678 22.8949 32.244 22.9361C32.1364 23.1229 31.9494 23.2418 31.7379 23.2712H26.6372C26.633 23.2707 26.6288 23.2701 26.6246 23.2694C26.6172 23.2683 26.6097 23.2671 26.6019 23.2669C26.4898 23.2639 26.3828 23.2339 26.2845 23.1771C26.1405 23.094 26.0334 22.9614 25.9823 22.8036C25.9736 22.7766 25.9618 22.7516 25.9489 22.7274C25.9485 22.7264 25.9483 22.7252 25.948 22.7239C25.9476 22.7225 25.9473 22.721 25.9468 22.7196C25.8039 22.3682 25.5544 22.0819 25.2255 21.8918C24.834 21.6664 24.3784 21.6056 23.9421 21.7232C23.5054 21.84 23.1407 22.1198 22.9148 22.5111C22.689 22.9024 22.6288 23.358 22.746 23.7947C22.8628 24.231 23.1426 24.5961 23.5341 24.8218C23.7936 24.9718 24.0814 25.0489 24.3759 25.0489C24.4457 25.0489 24.5164 25.0444 24.5867 25.0358L24.6499 25.0266C24.6628 25.0247 24.6748 25.021 24.6867 25.0173C24.6912 25.0159 24.6956 25.0145 24.7001 25.0133C24.7014 25.0128 24.7028 25.0128 24.7041 25.0127C24.7052 25.0126 24.7062 25.0126 24.7073 25.0123C24.8698 24.9773 25.0378 25.0044 25.1816 25.0869C25.2773 25.1424 25.3539 25.218 25.4119 25.3099C25.4136 25.3135 25.4151 25.3172 25.4167 25.3209C25.4191 25.3268 25.4215 25.3327 25.4248 25.3384L27.9994 29.7979C28.0451 29.9492 28.0341 30.1112 27.9724 30.2597L25.4477 34.6328C25.4451 34.6363 25.4423 34.6397 25.4396 34.6431C25.4345 34.6493 25.4294 34.6555 25.4252 34.6628C25.3669 34.7584 25.287 34.8358 25.1884 34.8928C25.0449 34.9757 24.8764 35.0027 24.7144 34.9678C24.6866 34.9618 24.6589 34.9594 24.6315 34.9588C24.6302 34.9586 24.6289 34.9583 24.6277 34.9579C24.6264 34.9575 24.6251 34.9571 24.6238 34.9569C24.2483 34.9039 23.8759 34.9774 23.5464 35.1675C22.7387 35.6338 22.4608 36.6705 22.9271 37.4783C23.2399 38.0203 23.8097 38.3233 24.3949 38.3233C24.6816 38.3233 24.9724 38.2506 25.2381 38.0972C25.5593 37.9114 25.8049 37.6331 25.9487 37.2941L25.9729 37.2338C25.9781 37.2201 25.981 37.2065 25.984 37.193C25.9849 37.1889 25.9858 37.1848 25.9868 37.1807C25.9872 37.1799 25.9876 37.1792 25.9879 37.1786C25.9883 37.1781 25.9886 37.1776 25.9888 37.1771C26.0404 37.0185 26.1478 36.8859 26.2911 36.8031C26.3871 36.7479 26.4911 36.7189 26.6003 36.7146C26.6041 36.7149 26.6079 36.7155 26.6117 36.7161C26.6179 36.717 26.6241 36.7179 26.6306 36.7179H31.677C31.6788 36.7181 31.6805 36.7185 31.6823 36.7187C31.6838 36.719 31.6853 36.7192 31.6869 36.7193C31.9196 36.7311 32.1283 36.8584 32.2468 37.0586L34.7507 41.3957C34.7529 41.4003 34.7547 41.4051 34.7565 41.4099C34.759 41.4163 34.7614 41.4228 34.7649 41.4291C34.8188 41.5277 34.8459 41.6355 34.8459 41.7493C34.8459 41.9151 34.785 42.0746 34.674 42.1973C34.6678 42.2041 34.6639 42.212 34.66 42.2198C34.6571 42.2259 34.6541 42.2319 34.65 42.2376C34.6467 42.241 34.6433 42.2443 34.6399 42.2476C34.6326 42.2547 34.6254 42.2618 34.6191 42.27C34.386 42.5696 34.2628 42.9287 34.2628 43.3086C34.2628 44.2416 35.0214 45 35.9541 45C36.8869 45 37.6457 44.2416 37.6457 43.3086C37.6457 42.9381 37.5279 42.5863 37.3041 42.2891L37.2634 42.2381C37.2587 42.2323 37.2531 42.2285 37.2475 42.2247C37.243 42.2216 37.2384 42.2185 37.2343 42.2143C37.2322 42.2119 37.2308 42.2091 37.2294 42.2061C37.2279 42.2031 37.2264 42.1999 37.224 42.1973C37.113 42.0746 37.0521 41.9151 37.0521 41.7493C37.0521 41.6378 37.0791 41.5318 37.1308 41.4347C37.1331 41.431 37.1359 41.4278 37.1387 41.4246C37.1419 41.4208 37.1452 41.4171 37.1477 41.4126L39.6516 37.0757C39.6535 37.073 39.6557 37.0706 39.6579 37.0682C39.6603 37.0657 39.6626 37.0632 39.6643 37.0605C39.7847 36.8749 39.9836 36.7637 40.2013 36.7496H45.3156C45.3216 36.7496 45.3276 36.7487 45.3335 36.7478C45.3377 36.7472 45.3419 36.7466 45.3461 36.7463C45.4551 36.7504 45.5591 36.7793 45.6551 36.8349C45.7987 36.9176 45.906 37.0502 45.9572 37.2084C45.9574 37.2089 45.9576 37.2093 45.9579 37.2097C45.9583 37.2101 45.9587 37.2106 45.9589 37.2113C45.9636 37.2304 45.9673 37.2497 45.9748 37.2684L45.9973 37.3247C46.1415 37.6656 46.3879 37.9436 46.7087 38.1287C46.9746 38.2817 47.2648 38.3548 47.5513 38.3548C48.1365 38.3548 48.7063 38.0514 49.0193 37.5096C49.485 36.7016 49.2079 35.6651 48.3997 35.1984ZM40.4897 28.5988L37.2032 28.3637L35.9668 25.2784L34.7295 28.3637L31.4432 28.5988L33.9649 30.7412L33.1716 33.9718L35.9668 32.2104L38.7621 33.9718L37.968 30.7412L40.4897 28.5988Z" fill="white"/>
<path d="M65.754 33.252C64.83 33.252 63.934 33.077 63.066 32.727C62.212 32.377 61.456 31.88 60.798 31.236L62.226 29.577C62.716 30.039 63.276 30.417 63.906 30.711C64.536 30.991 65.166 31.131 65.796 31.131C66.58 31.131 67.175 30.97 67.581 30.648C67.987 30.326 68.19 29.899 68.19 29.367C68.19 28.793 67.987 28.38 67.581 28.128C67.189 27.876 66.685 27.617 66.069 27.351L64.179 26.532C63.731 26.336 63.29 26.084 62.856 25.776C62.436 25.468 62.086 25.076 61.806 24.6C61.54 24.124 61.407 23.55 61.407 22.878C61.407 22.15 61.603 21.499 61.995 20.925C62.401 20.337 62.947 19.875 63.633 19.539C64.333 19.189 65.131 19.014 66.027 19.014C66.825 19.014 67.595 19.175 68.337 19.497C69.079 19.805 69.716 20.225 70.248 20.757L69.009 22.311C68.575 21.947 68.113 21.66 67.623 21.45C67.147 21.24 66.615 21.135 66.027 21.135C65.383 21.135 64.858 21.282 64.452 21.576C64.06 21.856 63.864 22.248 63.864 22.752C63.864 23.102 63.962 23.396 64.158 23.634C64.368 23.858 64.641 24.054 64.977 24.222C65.313 24.376 65.67 24.53 66.048 24.684L67.917 25.461C68.729 25.811 69.394 26.273 69.912 26.847C70.43 27.407 70.689 28.184 70.689 29.178C70.689 29.92 70.493 30.599 70.101 31.215C69.709 31.831 69.142 32.328 68.4 32.706C67.672 33.07 66.79 33.252 65.754 33.252ZM75.5482 33V21.324H71.5792V19.266H81.9532V21.324H77.9842V33H75.5482ZM84.2401 33V19.266H92.5141V21.324H86.6761V24.831H91.6111V26.889H86.6761V30.942H92.7241V33H84.2401ZM95.5399 33V19.266H99.8659C100.888 19.266 101.798 19.399 102.596 19.665C103.394 19.931 104.024 20.372 104.486 20.988C104.948 21.604 105.179 22.444 105.179 23.508C105.179 24.516 104.948 25.349 104.486 26.007C104.024 26.665 103.401 27.155 102.617 27.477C101.833 27.799 100.944 27.96 99.9499 27.96H97.9759V33H95.5399ZM97.9759 26.007H99.7609C101.777 26.007 102.785 25.174 102.785 23.508C102.785 22.64 102.519 22.045 101.987 21.723C101.469 21.387 100.699 21.219 99.6769 21.219H97.9759V26.007Z" fill="white"/>
<path d="M60.9 46V39.44H62.54C63.5533 39.44 64.3233 39.72 64.85 40.28C65.3767 40.84 65.64 41.6433 65.64 42.69C65.64 43.21 65.5733 43.6767 65.44 44.09C65.3067 44.4967 65.11 44.8433 64.85 45.13C64.59 45.41 64.27 45.6267 63.89 45.78C63.51 45.9267 63.0733 46 62.58 46H60.9ZM61.73 45.32H62.48C63.2467 45.32 63.82 45.09 64.2 44.63C64.5867 44.17 64.78 43.5233 64.78 42.69C64.78 41.8567 64.5867 41.22 64.2 40.78C63.82 40.34 63.2467 40.12 62.48 40.12H61.73V45.32ZM66.9723 46V41.14H67.7923V46H66.9723ZM67.3923 40.14C67.2323 40.14 67.0957 40.09 66.9823 39.99C66.8757 39.89 66.8223 39.7633 66.8223 39.61C66.8223 39.45 66.8757 39.3233 66.9823 39.23C67.0957 39.13 67.2323 39.08 67.3923 39.08C67.5523 39.08 67.6857 39.13 67.7923 39.23C67.9057 39.3233 67.9623 39.45 67.9623 39.61C67.9623 39.7633 67.9057 39.89 67.7923 39.99C67.6857 40.09 67.5523 40.14 67.3923 40.14ZM71.0733 48.24C70.7733 48.24 70.4999 48.21 70.2533 48.15C70.0066 48.0967 69.7933 48.0133 69.6133 47.9C69.4399 47.7867 69.3033 47.65 69.2033 47.49C69.1099 47.33 69.0633 47.1433 69.0633 46.93C69.0633 46.7233 69.1266 46.5267 69.2533 46.34C69.3799 46.1533 69.5533 45.9833 69.7733 45.83V45.79C69.6533 45.7167 69.5499 45.6167 69.4633 45.49C69.3833 45.3567 69.3433 45.1933 69.3433 45C69.3433 44.7933 69.3999 44.6133 69.5133 44.46C69.6266 44.3067 69.7466 44.1867 69.8733 44.1V44.06C69.7133 43.9267 69.5666 43.75 69.4333 43.53C69.3066 43.3033 69.2433 43.0433 69.2433 42.75C69.2433 42.4833 69.2899 42.2433 69.3833 42.03C69.4833 41.8167 69.6166 41.6367 69.7833 41.49C69.9499 41.3367 70.1433 41.22 70.3633 41.14C70.5899 41.06 70.8266 41.02 71.0733 41.02C71.2066 41.02 71.3299 41.0333 71.4433 41.06C71.5633 41.08 71.6699 41.1067 71.7633 41.14H73.4533V41.77H72.4533C72.5666 41.8833 72.6599 42.0267 72.7333 42.2C72.8133 42.3733 72.8533 42.5633 72.8533 42.77C72.8533 43.03 72.8066 43.2667 72.7133 43.48C72.6199 43.6867 72.4933 43.8633 72.3333 44.01C72.1733 44.15 71.9833 44.26 71.7633 44.34C71.5499 44.42 71.3199 44.46 71.0733 44.46C70.9533 44.46 70.8299 44.4467 70.7033 44.42C70.5766 44.3867 70.4566 44.3433 70.3433 44.29C70.2566 44.3633 70.1833 44.4467 70.1233 44.54C70.0633 44.6267 70.0333 44.7367 70.0333 44.87C70.0333 45.0233 70.0933 45.15 70.2133 45.25C70.3333 45.35 70.5599 45.4 70.8933 45.4H71.8333C72.3999 45.4 72.8233 45.4933 73.1033 45.68C73.3899 45.86 73.5333 46.1533 73.5333 46.56C73.5333 46.7867 73.4766 47 73.3633 47.2C73.2499 47.4067 73.0866 47.5867 72.8733 47.74C72.6599 47.8933 72.3999 48.0133 72.0933 48.1C71.7933 48.1933 71.4533 48.24 71.0733 48.24ZM71.0733 43.91C71.2133 43.91 71.3433 43.8833 71.4633 43.83C71.5899 43.7767 71.6999 43.7 71.7933 43.6C71.8933 43.5 71.9699 43.38 72.0233 43.24C72.0766 43.0933 72.1033 42.93 72.1033 42.75C72.1033 42.39 72.0033 42.1133 71.8033 41.92C71.6033 41.72 71.3599 41.62 71.0733 41.62C70.7866 41.62 70.5433 41.72 70.3433 41.92C70.1433 42.1133 70.0433 42.39 70.0433 42.75C70.0433 42.93 70.0699 43.0933 70.1233 43.24C70.1766 43.38 70.2499 43.5 70.3433 43.6C70.4433 43.7 70.5533 43.7767 70.6733 43.83C70.7999 43.8833 70.9333 43.91 71.0733 43.91ZM71.1933 47.67C71.4266 47.67 71.6366 47.64 71.8233 47.58C72.0166 47.5267 72.1799 47.4533 72.3133 47.36C72.4466 47.2733 72.5499 47.17 72.6233 47.05C72.6966 46.93 72.7333 46.8067 72.7333 46.68C72.7333 46.4533 72.6499 46.2967 72.4833 46.21C72.3166 46.1233 72.0733 46.08 71.7533 46.08H70.9133C70.8199 46.08 70.7166 46.0733 70.6033 46.06C70.4966 46.0533 70.3899 46.0333 70.2833 46C70.1099 46.1267 69.9833 46.26 69.9033 46.4C69.8233 46.54 69.7833 46.68 69.7833 46.82C69.7833 47.08 69.9066 47.2867 70.1533 47.44C70.4066 47.5933 70.7533 47.67 71.1933 47.67ZM74.4723 46V41.14H75.2923V46H74.4723ZM74.8923 40.14C74.7323 40.14 74.5957 40.09 74.4823 39.99C74.3757 39.89 74.3223 39.7633 74.3223 39.61C74.3223 39.45 74.3757 39.3233 74.4823 39.23C74.5957 39.13 74.7323 39.08 74.8923 39.08C75.0523 39.08 75.1857 39.13 75.2923 39.23C75.4057 39.3233 75.4623 39.45 75.4623 39.61C75.4623 39.7633 75.4057 39.89 75.2923 39.99C75.1857 40.09 75.0523 40.14 74.8923 40.14ZM78.4633 46.12C78.2033 46.12 77.9833 46.08 77.8033 46C77.6299 45.92 77.4866 45.81 77.3733 45.67C77.2666 45.53 77.1899 45.36 77.1433 45.16C77.0966 44.96 77.0733 44.74 77.0733 44.5V41.81H76.3533V41.19L77.1133 41.14L77.2133 39.78H77.9033V41.14H79.2133V41.81H77.9033V44.51C77.9033 44.81 77.9566 45.0433 78.0633 45.21C78.1766 45.37 78.3733 45.45 78.6533 45.45C78.7399 45.45 78.8333 45.4367 78.9333 45.41C79.0333 45.3833 79.1233 45.3533 79.2033 45.32L79.3633 45.94C79.2299 45.9867 79.0833 46.0267 78.9233 46.06C78.7699 46.1 78.6166 46.12 78.4633 46.12ZM81.2173 46.12C80.8107 46.12 80.4707 46 80.1973 45.76C79.9307 45.52 79.7973 45.18 79.7973 44.74C79.7973 44.2067 80.034 43.8 80.5073 43.52C80.9807 43.2333 81.7373 43.0333 82.7773 42.92C82.7773 42.7667 82.7607 42.6167 82.7273 42.47C82.7007 42.3233 82.6507 42.1933 82.5773 42.08C82.504 41.9667 82.4007 41.8767 82.2673 41.81C82.1407 41.7367 81.9773 41.7 81.7773 41.7C81.4973 41.7 81.234 41.7533 80.9873 41.86C80.7407 41.9667 80.5207 42.0867 80.3273 42.22L80.0073 41.65C80.234 41.5033 80.5107 41.3633 80.8373 41.23C81.164 41.09 81.524 41.02 81.9173 41.02C82.5107 41.02 82.9407 41.2033 83.2073 41.57C83.474 41.93 83.6073 42.4133 83.6073 43.02V46H82.9273L82.8573 45.42H82.8273C82.594 45.6133 82.344 45.78 82.0773 45.92C81.8107 46.0533 81.524 46.12 81.2173 46.12ZM81.4573 45.46C81.6907 45.46 81.9107 45.4067 82.1173 45.3C82.324 45.1867 82.544 45.0233 82.7773 44.81V43.46C82.3707 43.5133 82.0273 43.5767 81.7473 43.65C81.474 43.7233 81.2507 43.81 81.0773 43.91C80.9107 44.01 80.7873 44.1267 80.7073 44.26C80.634 44.3867 80.5973 44.5267 80.5973 44.68C80.5973 44.96 80.6807 45.16 80.8473 45.28C81.014 45.4 81.2173 45.46 81.4573 45.46ZM86.0064 46.12C85.6931 46.12 85.4697 46.0267 85.3364 45.84C85.2031 45.6533 85.1364 45.38 85.1364 45.02V38.88H85.9564V45.08C85.9564 45.2133 85.9797 45.3067 86.0264 45.36C86.0731 45.4133 86.1264 45.44 86.1864 45.44C86.2131 45.44 86.2364 45.44 86.2564 45.44C86.2831 45.44 86.3197 45.4333 86.3664 45.42L86.4764 46.04C86.4231 46.0667 86.3597 46.0867 86.2864 46.1C86.2131 46.1133 86.1197 46.12 86.0064 46.12ZM89.7672 46V39.44H91.6372C92.0039 39.44 92.3372 39.4733 92.6372 39.54C92.9439 39.6067 93.2039 39.7167 93.4172 39.87C93.6305 40.0167 93.7972 40.2133 93.9172 40.46C94.0372 40.7067 94.0972 41.01 94.0972 41.37C94.0972 41.7167 94.0372 42.0167 93.9172 42.27C93.8039 42.5233 93.6405 42.7333 93.4272 42.9C93.2139 43.0667 92.9572 43.1933 92.6572 43.28C92.3639 43.36 92.0372 43.4 91.6772 43.4H90.5972V46H89.7672ZM90.5972 42.72H91.5772C92.1505 42.72 92.5739 42.6133 92.8472 42.4C93.1272 42.18 93.2672 41.8367 93.2672 41.37C93.2672 40.8967 93.1205 40.57 92.8272 40.39C92.5405 40.2033 92.1105 40.11 91.5372 40.11H90.5972V42.72ZM96.2213 46.12C95.9079 46.12 95.6846 46.0267 95.5513 45.84C95.4179 45.6533 95.3513 45.38 95.3513 45.02V38.88H96.1713V45.08C96.1713 45.2133 96.1946 45.3067 96.2413 45.36C96.2879 45.4133 96.3413 45.44 96.4013 45.44C96.4279 45.44 96.4513 45.44 96.4713 45.44C96.4979 45.44 96.5346 45.4333 96.5813 45.42L96.6913 46.04C96.6379 46.0667 96.5746 46.0867 96.5013 46.1C96.4279 46.1133 96.3346 46.12 96.2213 46.12ZM99.0201 46.12C98.6134 46.12 98.2734 46 98.0001 45.76C97.7334 45.52 97.6001 45.18 97.6001 44.74C97.6001 44.2067 97.8367 43.8 98.3101 43.52C98.7834 43.2333 99.5401 43.0333 100.58 42.92C100.58 42.7667 100.563 42.6167 100.53 42.47C100.503 42.3233 100.453 42.1933 100.38 42.08C100.307 41.9667 100.203 41.8767 100.07 41.81C99.9434 41.7367 99.7801 41.7 99.5801 41.7C99.3001 41.7 99.0367 41.7533 98.7901 41.86C98.5434 41.9667 98.3234 42.0867 98.1301 42.22L97.8101 41.65C98.0367 41.5033 98.3134 41.3633 98.6401 41.23C98.9667 41.09 99.3267 41.02 99.7201 41.02C100.313 41.02 100.743 41.2033 101.01 41.57C101.277 41.93 101.41 42.4133 101.41 43.02V46H100.73L100.66 45.42H100.63C100.397 45.6133 100.147 45.78 99.8801 45.92C99.6134 46.0533 99.3267 46.12 99.0201 46.12ZM99.2601 45.46C99.4934 45.46 99.7134 45.4067 99.9201 45.3C100.127 45.1867 100.347 45.0233 100.58 44.81V43.46C100.173 43.5133 99.8301 43.5767 99.5501 43.65C99.2767 43.7233 99.0534 43.81 98.8801 43.91C98.7134 44.01 98.5901 44.1267 98.5101 44.26C98.4367 44.3867 98.4001 44.5267 98.4001 44.68C98.4001 44.96 98.4834 45.16 98.6501 45.28C98.8167 45.4 99.0201 45.46 99.2601 45.46ZM104.332 46.12C104.072 46.12 103.852 46.08 103.672 46C103.499 45.92 103.356 45.81 103.242 45.67C103.136 45.53 103.059 45.36 103.012 45.16C102.966 44.96 102.942 44.74 102.942 44.5V41.81H102.222V41.19L102.982 41.14L103.082 39.78H103.772V41.14H105.082V41.81H103.772V44.51C103.772 44.81 103.826 45.0433 103.932 45.21C104.046 45.37 104.242 45.45 104.522 45.45C104.609 45.45 104.702 45.4367 104.802 45.41C104.902 45.3833 104.992 45.3533 105.072 45.32L105.232 45.94C105.099 45.9867 104.952 46.0267 104.792 46.06C104.639 46.1 104.486 46.12 104.332 46.12ZM106.321 46V41.81H105.661V41.19L106.321 41.14V40.37C106.321 39.87 106.435 39.4767 106.661 39.19C106.895 38.9033 107.255 38.76 107.741 38.76C107.895 38.76 108.038 38.7767 108.171 38.81C108.311 38.8367 108.438 38.8733 108.551 38.92L108.371 39.55C108.191 39.47 108.008 39.43 107.821 39.43C107.368 39.43 107.141 39.7433 107.141 40.37V41.14H108.171V41.81H107.141V46H106.321ZM110.894 46.12C110.594 46.12 110.307 46.0633 110.034 45.95C109.767 45.8367 109.53 45.6733 109.324 45.46C109.117 45.24 108.95 44.9733 108.824 44.66C108.704 44.34 108.644 43.98 108.644 43.58C108.644 43.1733 108.704 42.8133 108.824 42.5C108.95 42.18 109.117 41.91 109.324 41.69C109.53 41.47 109.767 41.3033 110.034 41.19C110.307 41.0767 110.594 41.02 110.894 41.02C111.194 41.02 111.477 41.0767 111.744 41.19C112.017 41.3033 112.257 41.47 112.464 41.69C112.67 41.91 112.834 42.18 112.954 42.5C113.08 42.8133 113.144 43.1733 113.144 43.58C113.144 43.98 113.08 44.34 112.954 44.66C112.834 44.9733 112.67 45.24 112.464 45.46C112.257 45.6733 112.017 45.8367 111.744 45.95C111.477 46.0633 111.194 46.12 110.894 46.12ZM110.894 45.44C111.1 45.44 111.29 45.3967 111.464 45.31C111.637 45.2167 111.784 45.09 111.904 44.93C112.03 44.7633 112.127 44.5667 112.194 44.34C112.26 44.1133 112.294 43.86 112.294 43.58C112.294 43.3 112.26 43.0467 112.194 42.82C112.127 42.5867 112.03 42.3867 111.904 42.22C111.784 42.0533 111.637 41.9267 111.464 41.84C111.29 41.7467 111.1 41.7 110.894 41.7C110.687 41.7 110.497 41.7467 110.324 41.84C110.15 41.9267 110 42.0533 109.874 42.22C109.754 42.3867 109.66 42.5867 109.594 42.82C109.527 43.0467 109.494 43.3 109.494 43.58C109.494 43.86 109.527 44.1133 109.594 44.34C109.66 44.5667 109.754 44.7633 109.874 44.93C110 45.09 110.15 45.2167 110.324 45.31C110.497 45.3967 110.687 45.44 110.894 45.44ZM114.424 46V41.14H115.104L115.174 42.02H115.204C115.37 41.7133 115.57 41.47 115.804 41.29C116.044 41.11 116.304 41.02 116.584 41.02C116.777 41.02 116.95 41.0533 117.104 41.12L116.944 41.84C116.864 41.8133 116.79 41.7933 116.724 41.78C116.657 41.7667 116.574 41.76 116.474 41.76C116.267 41.76 116.05 41.8433 115.824 42.01C115.604 42.1767 115.41 42.4667 115.244 42.88V46H114.424ZM117.89 46V41.14H118.57L118.64 41.84H118.67C118.884 41.6067 119.114 41.4133 119.36 41.26C119.614 41.1 119.887 41.02 120.18 41.02C120.554 41.02 120.844 41.1033 121.05 41.27C121.264 41.43 121.42 41.6567 121.52 41.95C121.774 41.67 122.027 41.4467 122.28 41.28C122.54 41.1067 122.82 41.02 123.12 41.02C123.62 41.02 123.99 41.18 124.23 41.5C124.477 41.82 124.6 42.2933 124.6 42.92V46H123.78V43.03C123.78 42.57 123.707 42.24 123.56 42.04C123.414 41.8333 123.187 41.73 122.88 41.73C122.514 41.73 122.107 41.98 121.66 42.48V46H120.84V43.03C120.84 42.57 120.767 42.24 120.62 42.04C120.474 41.8333 120.244 41.73 119.93 41.73C119.564 41.73 119.157 41.98 118.71 42.48V46H117.89Z" fill="white"/>
</svg>
